inDegrees=no
num_controls=7
num_derivatives=13
num_iterations=129
num_multipliers=7
num_parameters=0
num_slacks=7
num_states=26
objective=0.449425
objective_accelerations=0.044726
objective_balance=0.004771
objective_effort=0.022679
objective_height=0.372089
objective_ligament=0.005160
solver_duration=1694.409415
status=Solve_Succeeded
success=true
DataType=double
version=3
OpenSimVersion=4.5
endheader
time	/jointset/ground_pelvis/pelvis_tilt/value	/jointset/ground_pelvis/pelvis_tx/value	/jointset/ground_pelvis/pelvis_ty/value	/jointset/hip_l/hip_flexion_l/value	/jointset/hip_l/hip_adduction_l/value	/jointset/hip_l/hip_rotation_l/value	/jointset/back/lumbar_extension/value	/jointset/patellofemoral_l/patellar_flexion_l/value	/jointset/knee_l/knee_flexion_l/value	/jointset/knee_l/knee_adduction_l/value	/jointset/knee_l/knee_rotation_l/value	/jointset/ankle_l/ankle_angle_l/value	/jointset/subtalar_l/subtalar_angle_l/value	/jointset/ground_pelvis/pelvis_tilt/speed	/jointset/ground_pelvis/pelvis_tx/speed	/jointset/ground_pelvis/pelvis_ty/speed	/jointset/hip_l/hip_flexion_l/speed	/jointset/hip_l/hip_adduction_l/speed	/jointset/hip_l/hip_rotation_l/speed	/jointset/back/lumbar_extension/speed	/jointset/patellofemoral_l/patellar_flexion_l/speed	/jointset/knee_l/knee_flexion_l/speed	/jointset/knee_l/knee_adduction_l/speed	/jointset/knee_l/knee_rotation_l/speed	/jointset/ankle_l/ankle_angle_l/speed	/jointset/subtalar_l/subtalar_angle_l/speed	/forceset/tau_hip_flexion_l	/forceset/tau_hip_adduction_l	/forceset/tau_hip_rotation_l	/forceset/tau_knee_flexion_l	/forceset/tau_ankle_angle_l	/forceset/tau_subtalar_angle_l	/forceset/tau_lumbar_extension	lambda_cid13_p0	lambda_cid13_p1	lambda_cid13_p2	lambda_cid13_p3	lambda_cid13_p4	lambda_cid13_p5	lambda_cid14_p0	/jointset/ground_pelvis/pelvis_tilt/accel	/jointset/ground_pelvis/pelvis_tx/accel	/jointset/ground_pelvis/pelvis_ty/accel	/jointset/hip_l/hip_flexion_l/accel	/jointset/hip_l/hip_adduction_l/accel	/jointset/hip_l/hip_rotation_l/accel	/jointset/back/lumbar_extension/accel	/jointset/patellofemoral_l/patellar_flexion_l/accel	/jointset/knee_l/knee_flexion_l/accel	/jointset/knee_l/knee_adduction_l/accel	/jointset/knee_l/knee_rotation_l/accel	/jointset/ankle_l/ankle_angle_l/accel	/jointset/subtalar_l/subtalar_angle_l/accel	gamma_cid13_p0	gamma_cid13_p1	gamma_cid13_p2	gamma_cid13_p3	gamma_cid13_p4	gamma_cid13_p5	gamma_cid14_p0
1	-0.6562392469125956	-0.1339592238459479	0.640221590245811	1.740434952784125	-0.4722712902033245	-0.1045263256994294	-0.261791742879154	1.028010431583307	1.028010431583337	-0.1711910559157026	-0.174525853264049	0.01271965480594557	-0.1214271566398797	-0.01696577937879254	0.01178721870519059	0.003870547808000748	-0.0023340625295131	-0.0006668025683919995	0.001455235716924258	-4.512425541861873e-06	0.0006150566659336487	0.000615056665933659	-0.00201821058379445	-2.221453493702954e-05	0.02043461011744608	0.008801699411931391	-0.3749473931963743	0.02948142229180108	-0.00231712787549131	-0.1996555660360907	0.09756049366434856	0.06880780101107992	0.3091761924889564	-8.680399168920617	-29.99616529195665	6.311356319243946	-3.109999777480319	-625.9169482824752	-49.9116501205472	-15.52427242660183	2.198090108839278	0.5863740978346569	1.505488962124189	-6.358602015988549	0.1815475348084664	-1.92369071413504	-0.02565471224191369	-3.842559928804579	-3.842559928804594	-0.07830314030164777	-0.01833148581009128	-0.1279743867215035	0.1581382688826186	2.9907739399407e-09	8.487449820045031e-09	-7.664637649255419e-09	1.687473659107286e-09	-1.914494371006214e-09	1.006828500356253e-08	1.858053458978551e-09
1.01	-0.6563001913878364	-0.1338121279444685	0.6403354110055877	1.740095300997969	-0.4722681339407094	-0.1046079731097067	-0.2617918018767872	1.027824529414139	1.027824529414139	-0.1712137428617015	-0.1745262031657382	0.01291767262197104	-0.12133040379276	0.004774801214259935	0.01763325849910483	0.01888980671747658	-0.06558737050397163	0.001301091902772245	-0.01778137574517248	-5.832207262446454e-06	-0.03779306199928122	-0.03779306199928403	-0.002517236047173957	-4.50968081849624e-05	0.01916609955167928	0.01055085963335368	-0.3748133692243656	0.02956886285769781	-0.002307237728358428	-0.1995400091921758	0.09735285457718379	0.06879051687120713	0.3090798293728755	-8.734083215795666	-29.98199743326204	6.312225385914612	-3.144678619710465	-625.7690865541636	-49.92370883612962	-15.53264274054044	2.161729153702421	0.5839134170869898	1.499573372419933	-6.307357100924142	0.2048674522138726	-1.923146977193911	0.01284762293069794	-3.839572992744497	-3.839572992744902	-0.03541211884868897	0.006135340434566218	-0.1267172158031206	0.1836026467529006	-5.472338967306257e-10	1.243733648491778e-09	4.221090209053221e-09	-1.778743059396933e-10	-6.793064470865982e-09	2.329513130303289e-08	-2.791173397564386e-09
1.02	-0.6561437926333138	-0.1336065327456665	0.6405993101578709	1.739123383749519	-0.4722452073235938	-0.1048818867575958	-0.2617918304254239	1.027254619026847	1.027254619026815	-0.1712413620362339	-0.1745267015024539	0.01310291976747896	-0.1212160997938298	0.02650286657387972	0.02348707816971266	0.03388622630936864	-0.1287871549884158	0.003287268331675916	-0.03699801180514675	1.577373729199832e-06	-0.07618658695907898	-0.07618658695908453	-0.003004656290256642	-5.190154076417187e-05	0.01788047601395817	0.01231192977401059	-0.3746793452523537	0.02965630342359331	-0.002297347581226199	-0.1994244523482627	0.09714521549001728	0.06877323273133219	0.3089834662567993	-8.792324178671123	-29.96796799021662	6.314186041380659	-3.186626037712659	-625.702343681041	-49.93734949772799	-15.55792526179514	2.195587062152739	0.5879300731733729	1.500921098607436	-6.347897317985676	0.1852039263563605	-1.919695633710533	-0.02390883969946959	-3.839641187721164	-3.839641187721164	-0.07598209624228006	-0.01511597767632749	-0.1313969811123676	0.1605202527295508	-4.221943924497028e-09	-7.053978167474211e-09	1.519129140028386e-08	-2.4431907286582e-09	-1.185769890755331e-08	3.651641388942423e-08	-7.605236652433075e-09
1.03	-0.6557701384514582	-0.1333423431780435	0.6410130021483417	1.737519820968069	-0.4722023023438691	-0.1053478238929461	-0.261791779480826	1.026300932054565	1.026300932054538	-0.1712737896016766	-0.1745272065636915	0.01327520391293806	-0.1210841091615244	0.04822883485159754	0.02935377351526994	0.04884264931935424	-0.1919071209721376	0.005300078101057889	-0.05618148793631522	7.049475485385838e-06	-0.1145400482034233	-0.1145400482034218	-0.003476996017104174	-4.726364726061872e-05	0.01657150449669268	0.01409070134917246	-0.3742055841100599	0.0297993394196698	-0.002289761628150948	-0.1992657921640245	0.09693818813129162	0.06872582906175727	0.3086579414345142	-8.833998615675771	-29.94706252392828	6.318824631289846	-3.243754951673627	-625.3600387787168	-49.97360050633239	-15.60015078060191	2.161229866826313	0.5864790330302839	1.491571116830896	-6.291306099999762	0.2102738274422948	-1.916492776443865	0.01254092455137721	-3.83158218535345	-3.831582185352394	-0.03228561348165663	0.008538401143263191	-0.1313746134391755	0.1872307579776646	-7.898048872580728e-09	-1.536244504103625e-08	2.615215048266677e-08	-4.712588462169277e-09	-1.692423195992256e-08	4.973763970323313e-08	-1.242098191136631e-08
1.04	-0.6551791989555764	-0.1330193987034082	0.6415759720118395	1.735285606554495	-0.4721390784014081	-0.1060053596243365	-0.261791720677323	1.024964033751328	1.024964033751306	-0.1713108257049096	-0.1745276083003335	0.013434252867943	-0.1209341957838538	0.06995992937911538	0.03523805957216869	0.06374180091480093	-0.2549174814132331	0.007351060878968684	-0.07531773101243894	3.149154769248536e-06	-0.1528288531502636	-0.1528288531502553	-0.003926363846978376	-3.123662257467324e-05	0.01523343792320558	0.01589647884706035	-0.3737318229677709	0.02994237541573965	-0.002282175675100398	-0.199107131979786	0.09673116077256354	0.06867842539217446	0.3083324166122273	-8.880257404109017	-29.92627431112469	6.324532747569532	-3.307962071925075	-625.0993600060201	-50.01158973567246	-15.65928459228012	2.19661231211274	0.5914482154416673	1.489466815699658	-6.325976209460442	0.1928385280621339	-1.910249022701569	-0.02578332419393752	-3.826709928220386	-3.826709928220404	-0.071387716847611	-0.01283815143982922	-0.1372159923566893	0.1659214372747642	-1.168146515844396e-08	-2.417540318467745e-08	3.663917971445992e-08	-7.027593853022383e-09	-2.200558211125194e-08	6.320871327755405e-08	-1.734503309674512e-08
1.05	-0.6543709315908232	-0.1326375081439735	0.6422875840383085	1.732421946748081	-0.4720551999391213	-0.1068540996171191	-0.2617917435442735	1.023244653617005	1.023244653616976	-0.1713522705060298	-0.1745279624070038	0.01357972284414188	-0.1207661624047844	0.09169204754391813	0.04114434515865661	0.07856474532580318	-0.3177835194186238	0.0094279434594494	-0.09442852623499264	-7.332731005389267e-06	-0.1910285988612296	-0.1910285988612213	-0.004360476373272693	-5.180073804530191e-05	0.01385068529662156	0.01770917243167482	-0.3728986782673249	0.03006257254493185	-0.002278463130107724	-0.1989189980754764	0.09651671230721999	0.06865231473177769	0.3077636336566804	-8.911706932925711	-29.92027441050918	6.33596554763158	-3.388878964399457	-624.552075861729	-50.12246449581032	-15.73535896312488	2.161284395210548	0.5908607646294265	1.476323927013165	-6.262276786564665	0.2156122623732065	-1.911248363906319	0.01137785130079532	-3.813816160304492	-3.813816160304494	-0.02911369379779975	0.001515690843533634	-0.1402861928448032	0.1887895217893135	-1.54682349236128e-08	-3.300412668050862e-08	4.711140176342215e-08	-9.344024483167427e-09	-2.708739529692381e-08	7.668759459439099e-08	-2.227246884232535e-08
1.06	-0.6533453884791125	-0.1321964263217985	0.6431469486435301	1.728930554723515	-0.4719504528231631	-0.1078938982805012	-0.2617918595356678	1.021143834172017	1.021143834171983	-0.1713979945670565	-0.174528885908338	0.01371106903506792	-0.1205800328493219	0.1134150787705809	0.04707631212023264	0.09329231666530319	-0.380463925043466	0.01152479161321639	-0.1135294651325097	-1.547573398000574e-05	-0.2291167152829875	-0.2291167152829797	-0.004782215830665159	-0.0001451155557469524	0.01240868086861573	0.01951571412567035	-0.3720655335668767	0.03018276967412668	-0.002274750585060324	-0.1987308641711717	0.09630226384187644	0.06862620407138313	0.3071948507011352	-8.947802161081643	-29.91438763019525	6.348474750259799	-3.476545893387519	-624.0872833908891	-50.23530017562562	-15.82835816686624	2.194794924484746	0.5965844904592833	1.470392201399213	-6.288849733350759	0.1968316427194007	-1.908277757694222	-0.02531554763393686	-3.804384070378789	-3.804384070378891	-0.06891310306723682	-0.02738829188600457	-0.1490663526410485	0.1646910591509908	-1.838472140614466e-08	-3.732111006088842e-08	5.967736337353386e-08	-1.00826898671677e-08	-3.101076406642935e-08	8.580311281968768e-08	-2.579214490426721e-08
